<?xml version="1.0" encoding="utf-8"?>
<!-- Generator: Adobe Illustrator 19.0.0, SVG Export Plug-In . SVG Version: 6.00 Build 0)  -->
<svg version="1.1" id="图层_1" xmlns="http://www.w3.org/2000/svg" xmlns:xlink="http://www.w3.org/1999/xlink" x="0px" y="0px"
	 viewBox="0 0 64 64" style="enable-background:new 0 0 64 64;" xml:space="preserve">
<g id="Block">
	<path id="block-shadow" style="fill:#CF8B17;" d="M3,10.3v41.2c0,2.3,1.8,4.1,4.1,4.1h7.3c0.6,0,1.2,0.3,1.6,0.7l4.3,5
		c0.8,0.9,1.9,1.4,3.1,1.4h16.8c1.2,0,2.3-0.5,3.1-1.4l4.3-5c0.4-0.5,1-0.7,1.6-0.7h7.3c2.3,0,4.1-1.8,4.1-4.1V9.4
		c0-2.3-1.8-4.1-4.1-4.1c0,0,0,0-0.1,0L7,6.2C4.8,6.3,3,8.1,3,10.3z"/>
	<path id="block" style="fill:#FFAB19;" d="M3,5.3v43.2c0,2.3,1.8,4.1,4.1,4.1h8.2c0.6,0,1.2,0.3,1.6,0.8l3.3,4.3
		c0.8,1,2,1.6,3.3,1.6h16.5c1.3,0,2.5-0.6,3.3-1.6l3.3-4.3c0.4-0.5,1-0.8,1.6-0.8h8.2c2.3,0,4.1-1.8,4.1-4.1V5.3
		c0-2.3-1.8-4.1-4.1-4.1H7.1C4.8,1.1,3,3,3,5.3z"/>
	<path id="block-outline" style="fill:#FFFFFF;fill-opacity:0.2;" d="M5.1,5.3v43.2c0,1.1,0.9,2.1,2.1,2.1h8.2
		c1.3,0,2.5,0.6,3.3,1.6l3.3,4.3c0.4,0.5,1,0.8,1.6,0.8h16.5c0.6,0,1.2-0.3,1.6-0.8l3.3-4.3c0.8-1,2-1.6,3.3-1.6h8.2
		c1.1,0,2.1-0.9,2.1-2.1V5.3c0-1.1-0.9-2.1-2.1-2.1H7.1C6,3.2,5.1,4.1,5.1,5.3z M3,5.3C3,3,4.8,1.1,7.1,1.1h49.4
		c2.3,0,4.1,1.8,4.1,4.1v43.2c0,2.3-1.8,4.1-4.1,4.1h-8.2c-0.6,0-1.2,0.3-1.6,0.8l-3.3,4.3c-0.8,1-2,1.6-3.3,1.6H23.6
		c-1.3,0-2.5-0.6-3.3-1.6L17,53.4c-0.4-0.5-1-0.8-1.6-0.8H7.1c-2.3,0-4.1-1.8-4.1-4.1V5.3z"/>
</g>
<g>
	<g>
		<path id="XMLID_38_" style="fill:#FFFFFF;stroke:#FFFFFF;" d="M18,9.3c2.9,0,5.6,1.4,7.5,3.6c1.9,2.2,3.1,5.3,3.1,8.7
			s-1.2,6.5-3.1,8.7c-1.9,2.2-4.6,3.6-7.5,3.6s-5.6-1.4-7.5-3.6c-1.9-2.2-3.1-5.3-3.1-8.7s1.2-6.5,3.1-8.7
			C12.4,10.6,15.1,9.3,18,9.3z"/>
		<path id="XMLID_37_" style="stroke:#FFFFFF;" d="M13.1,15.2c1.6,0,3,0.7,4.1,1.9c1,1.2,1.7,2.8,1.7,4.5s-0.6,3.4-1.7,4.5
			c-1,1.2-2.5,1.9-4.1,1.9s-3-0.7-4.1-1.9c-1-1.2-1.7-2.8-1.7-4.5s0.6-3.4,1.7-4.5C10.1,15.9,11.6,15.2,13.1,15.2z"/>
	</g>
	<g>
		<path id="XMLID_35_" style="fill:#FFFFFF;stroke:#FFFFFF;" d="M45.6,9.3c2.9,0,5.6,1.4,7.5,3.6c1.9,2.2,3.1,5.3,3.1,8.7
			s-1.2,6.5-3.1,8.7c-1.9,2.2-4.6,3.6-7.5,3.6c-2.9,0-5.6-1.4-7.5-3.6c-1.9-2.2-3.1-5.3-3.1-8.7s1.2-6.5,3.1-8.7
			C40,10.6,42.7,9.3,45.6,9.3z"/>
		<path id="XMLID_34_" style="stroke:#FFFFFF;" d="M40.8,15.2c1.6,0,3,0.7,4.1,1.9c1,1.2,1.7,2.8,1.7,4.5S46,25,44.9,26.1
			c-1,1.2-2.5,1.9-4.1,1.9s-3-0.7-4.1-1.9c-1-1.2-1.7-2.8-1.7-4.5s0.6-3.4,1.7-4.5C37.8,15.9,39.2,15.2,40.8,15.2z"/>
	</g>
</g>
<g id="XMLID_1_">
</g>
<g id="XMLID_2_">
</g>
<g id="XMLID_3_">
</g>
<g id="XMLID_4_">
</g>
<g id="XMLID_5_">
</g>
<g id="XMLID_6_">
</g>
<g id="XMLID_7_">
</g>
<g id="XMLID_8_">
</g>
<g id="XMLID_9_">
</g>
<g id="XMLID_10_">
</g>
<g id="XMLID_11_">
</g>
<g id="XMLID_12_">
</g>
<g id="XMLID_13_">
</g>
<g id="XMLID_14_">
</g>
<g id="XMLID_15_">
</g>
</svg>
